<?xml version="1.0" standalone="no"?><!DOCTYPE svg PUBLIC "-//W3C//DTD SVG 1.1//EN" "http://www.w3.org/Graphics/SVG/1.1/DTD/svg11.dtd"><svg t="1538128716223" class="icon" style="" viewBox="0 0 1024 1024" version="1.1" xmlns="http://www.w3.org/2000/svg" p-id="25572" xmlns:xlink="http://www.w3.org/1999/xlink" width="64" height="64"><defs><style type="text/css"></style></defs><path d="M0 512a512.219742 512 0 1 0 1024.439485 0 512.219742 512 0 1 0-1024.439485 0Z" fill="#0F0769" p-id="25573"></path><path d="M327.855794 485.630901H696.583691a26.369099 26.369099 0 0 1 0 52.738198H327.855794a26.369099 26.369099 0 0 1 0-52.738198z" fill="#FFFFFF" p-id="25574"></path><path d="M512.219742 301.376824a26.369099 26.369099 0 0 1 26.369099 26.369099v368.508154a26.369099 26.369099 0 1 1-52.738197 0V327.745923a26.369099 26.369099 0 0 1 26.369098-26.369099z" fill="#FFFFFF" p-id="25575"></path></svg>