<?xml version="1.0" standalone="no"?><!DOCTYPE svg PUBLIC "-//W3C//DTD SVG 1.1//EN" "http://www.w3.org/Graphics/SVG/1.1/DTD/svg11.dtd"><svg t="1538135447567" class="icon" style="" viewBox="0 0 1024 1024" version="1.1" xmlns="http://www.w3.org/2000/svg" p-id="7233" xmlns:xlink="http://www.w3.org/1999/xlink" width="64" height="64"><defs><style type="text/css"></style></defs><path d="M544 149.333333C302.464 149.333333 106.666667 335.573333 106.666667 565.333333S302.464 981.333333 544 981.333333C715.882667 981.333333 981.333333 725.44 981.333333 565.333333 981.333333 335.573333 785.536 149.333333 544 149.333333z" fill="#F16362" p-id="7234"></path><path d="M740.693333 283.306667a21.525333 21.525333 0 0 0-30.464 0l-198.016 197.994666-198.016-197.994666a21.525333 21.525333 0 1 0-30.464 30.464l197.994667 198.016-197.994667 197.994666a21.525333 21.525333 0 1 0 30.464 30.464l198.016-197.994666 198.016 197.994666a21.525333 21.525333 0 1 0 30.464-30.464l-198.016-197.994666 198.016-198.016a21.546667 21.546667 0 0 0 0-30.464zM512 42.666667C252.8 42.666667 42.666667 252.8 42.666667 512s210.133333 469.333333 469.333333 469.333333 469.333333-210.133333 469.333333-469.333333S771.2 42.666667 512 42.666667z m0 896C276.352 938.666667 85.333333 747.648 85.333333 512S276.352 85.333333 512 85.333333s426.666667 191.018667 426.666667 426.666667-191.018667 426.666667-426.666667 426.666667z" fill="#384D68" p-id="7235"></path></svg>