<?xml version="1.0" standalone="no"?><!DOCTYPE svg PUBLIC "-//W3C//DTD SVG 1.1//EN" "http://www.w3.org/Graphics/SVG/1.1/DTD/svg11.dtd"><svg t="1538128475107" class="icon" style="" viewBox="0 0 1024 1024" version="1.1" xmlns="http://www.w3.org/2000/svg" p-id="14311" xmlns:xlink="http://www.w3.org/1999/xlink" width="64" height="64"><defs><style type="text/css"></style></defs><path d="M0 512c0 282.624 229.376 512 512 512s512-229.376 512-512S794.624 0 512 0 0 229.376 0 512z" fill="#3a87e4" p-id="14312"></path><path d="M113.664 512c0 220.16 178.176 398.336 398.336 398.336s398.336-178.176 398.336-398.336S732.16 113.664 512 113.664 113.664 291.84 113.664 512z" fill="#3a87e4" p-id="14313"></path><path d="M722.432 310.784c10.752 10.752 10.752 29.696 0 40.448l-361.984 361.984c-10.752 10.752-29.696 10.752-40.448 0-10.752-10.752-10.752-29.696 0-40.448l361.984-361.984c11.264-10.752 29.696-10.752 40.448 0z" fill="#FFFFFF" p-id="14314"></path><path d="M320.512 310.784c10.752-10.752 29.696-10.752 40.448 0l361.984 361.984c10.752 10.752 10.752 29.696 0 40.448-10.752 10.752-29.696 10.752-40.448 0L320.512 351.232c-10.752-10.752-10.752-29.696 0-40.448z" fill="#FFFFFF" p-id="14315"></path></svg>