<?xml version="1.0" standalone="no"?><!DOCTYPE svg PUBLIC "-//W3C//DTD SVG 1.1//EN" "http://www.w3.org/Graphics/SVG/1.1/DTD/svg11.dtd"><svg t="1539765606681" class="icon" style="" viewBox="0 0 1024 1024" version="1.1" xmlns="http://www.w3.org/2000/svg" p-id="1926" xmlns:xlink="http://www.w3.org/1999/xlink" width="256" height="256"><defs><style type="text/css"></style></defs><path d="M512 0.064a512 512 0 1 0 0 1024 512 512 0 0 0 0-1024z m-23.36 722.176a132.16 132.16 0 0 1-186.752-186.816l93.376-93.44a132.16 132.16 0 0 1 186.88 0c8.128 8.128 14.528 17.216 20.032 26.688l-43.52 43.392c-2.048 2.048-4.544 3.264-6.976 4.608a66.304 66.304 0 0 0-16.32-27.968 66.304 66.304 0 0 0-93.504 0l-93.376 93.44a65.984 65.984 0 0 0 93.376 93.376l33.344-33.28c26.944 10.368 55.936 13.248 84.224 9.152l-70.784 70.848z m233.536-233.536l-93.44 93.376c-25.728 25.792-59.52 38.656-93.376 38.656a131.84 131.84 0 0 1-93.504-38.656 130.816 130.816 0 0 1-19.968-26.688l43.52-43.328c1.984-2.048 4.544-3.264 6.976-4.672 3.008 10.24 8.192 19.968 16.256 28.032 25.728 25.728 67.776 25.6 93.504 0l93.376-93.44a66.24 66.24 0 0 0 0-93.376 66.112 66.112 0 0 0-93.376 0l-33.344 33.28a166.144 166.144 0 0 0-84.224-9.216l70.784-70.72a131.84 131.84 0 0 1 225.472 93.376c0 33.792-12.8 67.584-38.656 93.376z" fill="#d4237a" p-id="1927"></path></svg>