<?xml version="1.0" standalone="no"?><!DOCTYPE svg PUBLIC "-//W3C//DTD SVG 1.1//EN" "http://www.w3.org/Graphics/SVG/1.1/DTD/svg11.dtd"><svg t="1538128895656" class="icon" style="" viewBox="0 0 1024 1024" version="1.1" xmlns="http://www.w3.org/2000/svg" p-id="34018" xmlns:xlink="http://www.w3.org/1999/xlink" width="64" height="64"><defs><style type="text/css"></style></defs><path d="M512 0C228.977778 0 0 228.977778 0 512s228.977778 512 512 512 512-228.977778 512-512S795.022222 0 512 0z m206.222222 742.4c0 19.911111-15.644444 35.555556-35.555555 35.555556H284.444444c-19.911111 0-35.555556-15.644444-35.555555-35.555556V342.755556c0-19.911111 15.644444-35.555556 35.555555-35.555556h398.222223c19.911111 0 35.555556 15.644444 35.555555 35.555556v399.644444z m73.955556-66.844444c0 19.911111-15.644444 35.555556-35.555556 35.555555h-7.111111V288.711111c0-7.111111-5.688889-12.8-12.8-12.8H315.733333v-7.111111c0-19.911111 15.644444-35.555556 35.555556-35.555556h405.333333c19.911111 0 35.555556 15.644444 35.555556 35.555556v406.755556z" fill="#5BC805" p-id="34019"></path><path d="M605.866667 375.466667c-17.066667-17.066667-46.933333-17.066667-64 0l-69.688889 69.688889c-5.688889 5.688889-5.688889 14.222222 0 19.911111s14.222222 5.688889 19.911111 0l69.688889-69.688889c7.111111-5.688889 17.066667-7.111111 24.177778 0l41.244444 41.244444c2.844444 2.844444 4.266667 7.111111 4.266667 11.377778s-1.422222 8.533333-4.266667 11.377778l-105.244444 105.244444c-7.111111 7.111111-17.066667 7.111111-24.177778 0l-19.911111-19.911111c-5.688889-5.688889-14.222222-5.688889-19.911111 0-5.688889 5.688889-5.688889 14.222222 0 19.911111l19.911111 19.911111c8.533333 8.533333 19.911111 12.8 32.711111 12.8s24.177778-4.266667 32.711111-12.8l105.244444-105.244444c8.533333-8.533333 12.8-19.911111 12.8-32.711111s-4.266667-24.177778-12.8-32.711111l-42.666666-38.4z" fill="#5BC805" p-id="34020"></path><path d="M457.955556 625.777778l-62.577778 62.577778c-7.111111 7.111111-17.066667 7.111111-24.177778 0l-38.4-38.4c-2.844444-2.844444-4.266667-7.111111-4.266667-11.377778s1.422222-8.533333 4.266667-11.377778l106.666667-106.666667c7.111111-7.111111 17.066667-7.111111 24.177777 0l17.066667 17.066667c5.688889 5.688889 14.222222 5.688889 19.911111 0s5.688889-14.222222 0-19.911111L483.555556 500.622222c-17.066667-17.066667-46.933333-17.066667-64 0L312.888889 607.288889c-9.955556 7.111111-14.222222 18.488889-14.222222 31.288889s4.266667 24.177778 12.8 32.711111l38.4 38.4c8.533333 8.533333 19.911111 12.8 32.711111 12.8 11.377778 0 22.755556-4.266667 32.711111-12.8l62.577778-62.577778c5.688889-5.688889 5.688889-14.222222 0-19.911111s-14.222222-7.111111-19.911111-1.422222z" fill="#5BC805" p-id="34021"></path></svg>