<?xml version="1.0" standalone="no"?><!DOCTYPE svg PUBLIC "-//W3C//DTD SVG 1.1//EN" "http://www.w3.org/Graphics/SVG/1.1/DTD/svg11.dtd"><svg t="1545483021282" class="icon" style="" viewBox="0 0 1024 1024" version="1.1" xmlns="http://www.w3.org/2000/svg" p-id="863" xmlns:xlink="http://www.w3.org/1999/xlink" width="200" height="200"><defs><style type="text/css"></style></defs><path d="M45.344 61.344h933.32v898.68H45.344z" fill="#A0D468" p-id="864"></path><path d="M874.688 338.688v-152l-21.344-38.656H156l-13.312 225.312-16 220L156 688.032v146.656l9.344 46.656H360l37.344-21.312 238.656-4 54.688 25.312 178.656-6.656 6.656-184 18.688-61.344L904 402.688z" fill="#CCD1D9" p-id="865"></path><path d="M228 224h564v554.68H228z" fill="#E6E9ED" p-id="866"></path><path d="M56 875l-14 85.032s79-3.032 84.688-5.032S56 875 56 875z" fill="#ED5564" p-id="867"></path><path d="M1024 170.688c0-11.812-9.562-21.376-21.344-21.376V106.688c11.782 0 21.344-9.562 21.344-21.376C1024 73.562 1014.438 64 1002.656 64V42.688h-42.626c0-11.812-9.562-21.376-21.344-21.376s-21.344 9.562-21.344 21.376h-42.656c0-11.812-9.562-21.376-21.344-21.376s-21.312 9.562-21.312 21.376h-42.688c0-11.812-9.532-21.376-21.312-21.376s-21.344 9.562-21.344 21.376h-42.656c0-11.812-9.562-21.376-21.344-21.376s-21.344 9.562-21.344 21.376h-42.656c0-11.812-9.562-21.376-21.344-21.376s-21.312 9.562-21.312 21.376h-42.688c0-11.812-9.532-21.376-21.312-21.376s-21.344 9.562-21.344 21.376h-42.656c0-11.812-9.562-21.376-21.344-21.376s-21.344 9.562-21.344 21.376h-42.656c0-11.812-9.562-21.376-21.344-21.376s-21.312 9.562-21.312 21.376h-42.688c0-11.812-9.532-21.376-21.312-21.376s-21.344 9.562-21.344 21.376H192.032c0-11.812-9.562-21.376-21.344-21.376s-21.344 9.562-21.344 21.376H106.688c0-11.812-9.562-21.376-21.344-21.376s-21.312 9.562-21.312 21.376H21.344V64C9.562 64 0 73.562 0 85.312c0 11.812 9.562 21.376 21.344 21.376v42.626C9.562 149.312 0 158.876 0 170.688 0 182.438 9.562 192 21.344 192v42.688C9.562 234.688 0 244.218 0 256c0 11.782 9.562 21.312 21.344 21.312V320C9.562 320 0 329.562 0 341.312c0 11.812 9.562 21.376 21.344 21.376v42.626C9.562 405.312 0 414.876 0 426.688 0 438.438 9.562 448 21.344 448v42.688C9.562 490.688 0 500.218 0 512c0 11.782 9.562 21.312 21.344 21.312V576C9.562 576 0 585.562 0 597.312c0 11.812 9.562 21.376 21.344 21.376v42.626C9.562 661.312 0 670.876 0 682.688 0 694.438 9.562 704 21.344 704v42.688C9.562 746.688 0 756.218 0 768s9.562 21.312 21.344 21.312V832C9.562 832 0 841.562 0 853.312c0 11.812 9.562 21.376 21.344 21.376v42.626C9.562 917.312 0 926.876 0 938.688 0 950.438 9.562 960 21.344 960v21.312H64c0 11.812 9.562 21.376 21.344 21.376s21.312-9.562 21.312-21.376h42.688c0 11.812 9.532 21.376 21.312 21.376S192 993.126 192 981.312h42.656c0 11.812 9.562 21.376 21.344 21.376 11.782 0 21.344-9.562 21.344-21.376H320c0 11.812 9.562 21.376 21.344 21.376s21.312-9.562 21.312-21.376h42.688c0 11.812 9.532 21.376 21.312 21.376S448 993.126 448 981.312h42.656c0 11.812 9.562 21.376 21.344 21.376s21.344-9.562 21.344-21.376H576c0 11.812 9.562 21.376 21.344 21.376s21.312-9.562 21.312-21.376h42.688c0 11.812 9.532 21.376 21.312 21.376S704 993.126 704 981.312h42.656c0 11.812 9.562 21.376 21.344 21.376s21.344-9.562 21.344-21.376H832c0 11.812 9.562 21.376 21.344 21.376s21.312-9.562 21.312-21.376h42.688c0 11.812 9.532 21.376 21.312 21.376S960 993.126 960 981.312h42.656V960c11.782 0 21.344-9.562 21.344-21.312 0-11.812-9.562-21.376-21.344-21.376v-42.626c11.782 0 21.344-9.562 21.344-21.376 0-11.75-9.562-21.312-21.344-21.312v-42.688c11.782 0 21.344-9.532 21.344-21.312s-9.562-21.312-21.344-21.312V704c11.782 0 21.344-9.562 21.344-21.312 0-11.812-9.562-21.376-21.344-21.376v-42.626c11.782 0 21.344-9.562 21.344-21.376 0-11.75-9.562-21.312-21.344-21.312v-42.688c11.782 0 21.344-9.532 21.344-21.312s-9.562-21.312-21.344-21.312V448c11.782 0 21.344-9.562 21.344-21.312 0-11.812-9.562-21.376-21.344-21.376v-42.626c11.782 0 21.344-9.562 21.344-21.376 0-11.75-9.562-21.312-21.344-21.312v-42.688c11.782 0 21.344-9.532 21.344-21.312s-9.562-21.312-21.344-21.312V192C1014.438 192 1024 182.438 1024 170.688z m-960 768v-33.876l33.844 33.876H64z m896-725.376c-11.782 0-21.344 9.562-21.344 21.376 0 11.75 9.562 21.312 21.344 21.312v682.688H158.156L64 844.5V256c11.782 0 21.344-9.562 21.344-21.312 0-11.812-9.562-21.376-21.344-21.376v-128h896v128z" fill="" p-id="868"></path><path d="M128.032 853.312c0 23.562 19.126 42.688 42.688 42.688h192l42.656-21.312H640L682.656 896h170.688c23.562 0 42.656-19.126 42.656-42.688v-170.626L917.376 640V384L896 341.312V170.688C896 147.126 876.906 128 853.344 128H170.718c-23.562 0-42.688 19.126-42.688 42.688v170.626L106.656 384v256l21.376 42.688v170.624z m21.312-459.218l16.844-33.656 4.532-9V170.688h682.626v180.752l4.5 9 16.876 33.656v235.812l-16.876 33.656-4.5 9v180.752h-160.594l-33.656-16.812-9.032-4.5H395.314l-9 4.5-33.656 16.812h-181.94v-180.752l-4.532-9-16.844-33.656 0.002-235.814zM448 917.312c0-11.75-9.562-21.312-21.344-21.312s-21.312 9.562-21.312 21.312c0 11.812 9.532 21.376 21.312 21.376S448 929.126 448 917.312zM533.344 917.312c0-11.75-9.562-21.312-21.344-21.312s-21.344 9.562-21.344 21.312c0 11.812 9.562 21.376 21.344 21.376s21.344-9.562 21.344-21.376zM618.656 917.312c0-11.75-9.532-21.312-21.312-21.312S576 905.562 576 917.312c0 11.812 9.562 21.376 21.344 21.376s21.312-9.562 21.312-21.376z" fill="" p-id="869"></path><path d="M810.656 213.312H213.344v597.376h597.312V213.312zM768 768H256V256h512v512z" fill="" p-id="870"></path><path d="M374.594 596.562c37.126 0 57.688-22.438 60.718-55.562h-29.5c-2.468 19.782-13.156 30.438-31.032 30.438-21.906 0-35.812-17.876-35.812-45.876 0-22.688 10.094-46.062 36.188-46.062 16 0 27.032 8.75 30.094 23.594h29.126c-2.282-28-26.094-48.562-58.656-48.562-41.5 0-66.626 31.406-66.626 70.844 0 42.812 26.062 71.186 65.5 71.186zM494.968 544.594h30.468c27.25 0 48.188-13.718 48.188-43.218 0-29.876-20.376-43.594-49.718-43.594h-58.438v135.562h29.5v-48.75z m0-62.468h26.656c13.156 0 23.062 5.156 23.062 19.626 0 15.062-9.906 19.438-23.25 19.438h-26.468v-39.064zM657.438 596c39.594 0 57.688-18.062 57.688-56.75v-81.468h-29.688v81.094c0 20-4.782 32.562-27.626 32.562-23.218 0-29.126-11.812-29.126-32.562v-81.094H599v81.094c0 38.656 18.062 57.124 58.438 57.124z" fill="" p-id="871"></path></svg>