<?xml version="1.0" standalone="no"?><!DOCTYPE svg PUBLIC "-//W3C//DTD SVG 1.1//EN" "http://www.w3.org/Graphics/SVG/1.1/DTD/svg11.dtd"><svg t="1538128924908" class="icon" style="" viewBox="0 0 1024 1024" version="1.1" xmlns="http://www.w3.org/2000/svg" p-id="35374" xmlns:xlink="http://www.w3.org/1999/xlink" width="64" height="64"><defs><style type="text/css"></style></defs><path d="M476.693333 429.504c-4.949333-3.008-121.984-74.24-149.973333-89.322667a83.946667 83.946667 0 0 1-10.453333-6.464c22.293333-19.690667 33.941333-56.170667 33.941333-82.581333A128.96 128.96 0 0 0 216.021333 128C120.128 128 85.333333 197.994667 85.333333 247.488c0 38.848 14.698667 91.733333 84.693334 122.901333 11.861333 5.290667 24.256 10.218667 36.906666 15.232 59.669333 23.594667 121.386667 48.042667 174.506667 129.024a17.066667 17.066667 0 0 0 14.336 7.744 17.109333 17.109333 0 0 0 11.072-4.053333l72-61.077333a17.173333 17.173333 0 0 0-2.154667-27.754667z m-210.965333-129.024a56.661333 56.661333 0 0 1-42.88 19.541333c-35.690667 0-68.202667-28.714667-72.448-63.957333a59.221333 59.221333 0 0 1 14.336-47.04 61.781333 61.781333 0 0 1 46.421333-20.416c36.714667 0 66.325333 25.066667 70.506667 59.626667 2.304 19.2-3.52 38.250667-15.936 52.245333zM935.530667 767.424L642.496 551.68l-114.218667 84.245333L725.333333 776.533333c2.026667 1.536 49.834667 35.456 108.522667 35.456h0.021333c32.042667 0 61.098667-8.725333 86.421334-29.44 4.074667-3.349333 15.232-15.125333 15.232-15.125333z" fill="#3F51B5" p-id="35375"></path><path d="M506.474667 453.973333l-129.493334 75.690667 151.296 106.282667 114.218667-84.266667z" fill="#283593" p-id="35376"></path><path d="M477.930667 590.058667L938.666667 256l-14.592-16.448c-25.322667-20.714667-54.378667-25.877333-86.442667-25.877333-58.709333 0-106.496 30.357333-108.138667 31.573333L402.005333 474.24a17.002667 17.002667 0 0 0-5.056 5.674667c-56.042667 101.888-124.096 128.853333-189.952 154.922666-12.714667 5.013333-25.088 9.941333-36.949333 15.232C100.032 681.237333 85.333333 734.122667 85.333333 772.949333 85.333333 822.421333 120.128 896 216 896c100.394667 0 134.186667-86.997333 134.186667-126.698667 0-26.432-11.648-62.869333-33.941334-82.581333 1.984-1.493333 5.205333-3.605333 10.453334-6.464 28.010667-15.082667 145.024-86.314667 151.232-90.197333z m1.749333-110.357334a21.333333 21.333333 0 1 1-0.021333 42.666667 21.333333 21.333333 0 0 1 0.021333-42.666667z m-198.037333 292.501334c-4.16 34.56-33.834667 59.626667-70.506667 59.626666a61.909333 61.909333 0 0 1-46.421333-20.394666 59.264 59.264 0 0 1-14.336-47.04c4.245333-35.264 36.778667-63.936 72.490666-63.936 16.469333 0 31.68 6.912 42.837334 19.52 12.437333 13.973333 18.261333 33.024 15.936 52.224z" fill="#03A9F4" p-id="35377"></path></svg>