<?xml version="1.0" standalone="no"?><!DOCTYPE svg PUBLIC "-//W3C//DTD SVG 1.1//EN" "http://www.w3.org/Graphics/SVG/1.1/DTD/svg11.dtd"><svg t="1538128852360" class="icon" style="" viewBox="0 0 1024 1024" version="1.1" xmlns="http://www.w3.org/2000/svg" p-id="32776" xmlns:xlink="http://www.w3.org/1999/xlink" width="64" height="64"><defs><style type="text/css"></style></defs><path d="M832 64H640c0-35.3-28.7-64-64-64H448c-35.3 0-64 28.7-64 64h-192c-35.3 0-64 28.7-64 64v64h768v-64c0-35.3-28.7-64-64-64zM186.7 960.3c3 35.1 34.1 63.7 69.3 63.7h512c35.3 0 66.4-28.7 69.3-63.7L896 256h-768l58.7 704.3z m421.6-483c1.4-17.6 17.1-30.9 34.6-29.3 17.6 1.4 30.7 16.9 29.3 34.6v320c-1.4 16.6-15.4 29.3-31.9 29.3-0.9 0-1.8 0-2.7-0.1-17.6-1.4-30.7-16.9-29.3-34.6V477.3zM352 482.7c-1.4-17.6 11.7-33.1 29.3-34.6 17.5-1.7 33.1 11.7 34.6 29.3v320c1.4 17.6-11.7 33.1-29.3 34.6-0.9 0.1-1.8 0.1-2.7 0.1-16.5 0-30.4-12.7-31.9-29.3V482.7z" fill="#1969FF" p-id="32777"></path></svg>