<?xml version="1.0" standalone="no"?><!DOCTYPE svg PUBLIC "-//W3C//DTD SVG 1.1//EN" "http://www.w3.org/Graphics/SVG/1.1/DTD/svg11.dtd"><svg t="1538128763139" class="icon" style="" viewBox="0 0 1024 1024" version="1.1" xmlns="http://www.w3.org/2000/svg" p-id="27446" xmlns:xlink="http://www.w3.org/1999/xlink" width="64" height="64"><defs><style type="text/css"></style></defs><path d="M792.786 873.077c0 21.753-17.597 39.387-39.303 39.387h-642.745c-21.706 0-39.303-17.634-39.303-39.387v-762.82c0-21.753 17.597-39.387 39.303-39.387h642.744c21.706 0 39.303 17.634 39.303 39.387v762.82z" fill="#2F144A" p-id="27447"></path><path d="M111.544 110.97h641.244v761.404h-641.244z" fill="#2EDBE8" p-id="27448"></path><path d="M672.599 221.363c0 16.718-13.552 30.27-30.27 30.27h-420.328c-16.718 0-30.27-13.552-30.27-30.27s13.552-30.27 30.27-30.27h420.328c16.718 0 30.27 13.552 30.27 30.27zM431.82 361.883c0 16.718-14.536 30.27-31.254 30.27h-178.565c-16.718 0-30.27-13.552-30.27-30.27s13.552-30.27 30.27-30.27h178.564c16.719 0 31.255 13.552 31.255 30.27zM351.693 502.402c0 16.718-13.552 30.27-30.27 30.27h-99.422c-16.718 0-30.27-13.552-30.27-30.27s13.552-30.27 30.27-30.27h99.422c16.718 0 30.27 13.552 30.27 30.27z" fill="#2F144A" p-id="27449"></path><path d="M396.897 674.422c0 153.614 124.529 278.143 278.143 278.143s278.143-124.529 278.143-278.143c0-153.614-124.529-278.143-278.143-278.143-153.614 0-278.143 124.529-278.143 278.143z" fill="#2F144A" p-id="27450"></path><path d="M434.853 673.788c0 132.651 107.536 240.188 240.187 240.188s240.188-107.536 240.188-240.188c0-132.651-107.536-240.188-240.188-240.188-132.651 0-240.188 107.536-240.188 240.188z" fill="#D6ECF3" p-id="27451"></path><path d="M818.961 785.572l-126.318-126.318v-115.062c0-11.054-8.982-20.014-20.062-20.014s-20.062 8.961-20.062 20.014v122.662c0 0.118 0.016 0.231 0.018 0.348-0.1 5.248 1.835 10.523 5.834 14.522l132.218 132.218c7.816 7.816 19.807 7.104 27.641-0.73 7.835-7.834 8.545-19.825 0.729-27.641z" fill="#2F144A" p-id="27452"></path></svg>