<?xml version="1.0" standalone="no"?><!DOCTYPE svg PUBLIC "-//W3C//DTD SVG 1.1//EN" "http://www.w3.org/Graphics/SVG/1.1/DTD/svg11.dtd"><svg t="1539765984487" class="icon" style="" viewBox="0 0 1024 1024" version="1.1" xmlns="http://www.w3.org/2000/svg" p-id="2782" xmlns:xlink="http://www.w3.org/1999/xlink" width="256" height="256"><defs><style type="text/css"></style></defs><path d="M0 0h1024v1024H0z" fill="#006590" p-id="2783"></path><path d="M32 716.8H64v-128l44.8 115.2c6.4 12.8 12.8 19.2 32 19.2s25.6-6.4 32-19.2l51.2-108.8v128H256v-128c0-12.8-6.4-19.2-12.8-19.2-25.6-6.4-38.4 0-44.8 12.8l-51.2 108.8-57.6-108.8c-6.4-19.2-19.2-25.6-44.8-19.2-12.8 6.4-19.2 12.8-12.8 25.6v121.6z m243.2-102.4h32v70.4c0 6.4 0 12.8 19.2 12.8h70.4V614.4h32v115.2c0 25.6-32 32-51.2 32H281.6v-19.2H384c19.2 0 19.2-12.8 19.2-12.8v-6.4H332.8c-32 0-51.2-12.8-51.2-32-6.4-6.4 0-76.8-6.4-76.8z m691.2-76.8c-19.2 0-32 0-44.8 6.4-6.4 0-6.4 0-12.8 6.4 0 0 0 6.4 6.4 6.4 0 6.4 6.4 12.8 12.8 12.8 0 6.4 6.4 6.4 12.8 12.8s19.2 6.4 32 12.8c6.4 0 12.8 6.4 19.2 12.8l6.4 6.4s0-6.4-6.4-6.4l-6.4-6.4c-6.4-12.8-19.2-19.2-25.6-25.6s-25.6-12.8-25.6-19.2c6.4 0 12.8 0 19.2-6.4 6.4 0 12.8 0 25.6-6.4h12.8c-6.4-6.4-6.4-12.8-12.8-12.8-12.8-12.8-25.6-19.2-38.4-32-6.4-6.4-19.2-6.4-25.6-12.8 0 0-6.4 0-6.4-6.4-6.4-6.4-6.4-12.8-12.8-19.2-6.4-12.8-12.8-25.6-19.2-44.8 0-6.4-6.4-19.2-12.8-25.6-25.6-38.4-57.6-70.4-96-89.6-12.8-6.4-19.2-6.4-32-12.8h-19.2c-6.4 0-6.4-6.4-12.8-6.4-12.8-6.4-51.2-25.6-57.6 0-6.4 12.8 6.4 32 12.8 38.4 6.4 6.4 6.4 12.8 12.8 19.2 0 6.4 0 6.4 6.4 12.8 6.4 12.8 6.4 19.2 12.8 32 0 6.4 6.4 12.8 6.4 12.8l6.4 6.4c0 6.4-6.4 12.8-6.4 19.2-6.4 25.6-6.4 64 6.4 83.2 6.4 6.4 12.8 19.2 25.6 12.8 12.8-6.4 6.4-19.2 12.8-32v-6.4c0 6.4 6.4 12.8 12.8 19.2 0 12.8 12.8 25.6 25.6 32 6.4 6.4 12.8 12.8 19.2 12.8l-6.4-6.4-12.8-12.8c-12.8-12.8-25.6-25.6-32-44.8-6.4-6.4-6.4-12.8-12.8-25.6 0 0 0-6.4-6.4-6.4-6.4 6.4-6.4 12.8-12.8 19.2-6.4 12.8-6.4 25.6-6.4 38.4-6.4 0-12.8-12.8-12.8-19.2-6.4-19.2-6.4-44.8 0-64 0-6.4 6.4-19.2 6.4-25.6s-6.4-12.8-6.4-12.8c-6.4-6.4-6.4-12.8-6.4-12.8-6.4-12.8-6.4-32-12.8-44.8 0-6.4-6.4-12.8-12.8-19.2-6.4-6.4-6.4-12.8-12.8-19.2v-12.8h12.8c6.4 0 19.2 6.4 25.6 12.8 0 0 6.4 6.4 12.8 6.4h25.6c12.8 6.4 25.6 6.4 38.4 19.2 32 19.2 57.6 51.2 76.8 83.2 0 6.4 6.4 12.8 6.4 19.2l19.2 38.4c6.4 12.8 12.8 25.6 19.2 32s19.2 6.4 25.6 12.8c6.4 0 12.8 6.4 19.2 6.4 6.4 6.4 19.2 12.8 25.6 19.2-6.4 0 6.4 6.4 6.4 12.8zM716.8 320H704c0 6.4 6.4 6.4 6.4 12.8s6.4 6.4 6.4 12.8c6.4 0 6.4-6.4 6.4-12.8v-6.4s-6.4 0-6.4-6.4z m-262.4 396.8h89.6c12.8 0 19.2 0 32-6.4s19.2-12.8 19.2-25.6v-25.6c0-6.4-6.4-19.2-25.6-25.6-6.4 0-19.2-6.4-25.6-6.4h-38.4c-12.8 0-19.2-6.4-19.2-12.8v-12.8c0-6.4 6.4-6.4 19.2-6.4h89.6v-25.6H480c-19.2 12.8-25.6 19.2-25.6 38.4v19.2c0 12.8 19.2 25.6 44.8 32h38.4c6.4 0 12.8 0 19.2 6.4v25.6s0 6.4-6.4 6.4-6.4 6.4-12.8 6.4H454.4v12.8z m339.2-38.4c0 19.2 19.2 32 51.2 38.4H934.4v-19.2h-83.2c-19.2 0-25.6-6.4-25.6-12.8V569.6h-32v108.8z m-179.2 6.4V608c0-19.2 12.8-32 38.4-32h70.4c25.6 6.4 38.4 12.8 38.4 32v76.8c0 12.8-6.4 25.6-19.2 32l32 25.6h-38.4l-25.6-25.6H633.6c-6.4-6.4-19.2-19.2-19.2-32z m38.4-6.4s0 6.4 0 0c0 12.8 12.8 19.2 25.6 19.2h25.6l-25.6-25.6h38.4l25.6 19.2c6.4 0 6.4-6.4 6.4-12.8V608c0-6.4-12.8-12.8-25.6-12.8h-51.2c-12.8 0-25.6 6.4-25.6 12.8l6.4 70.4z m300.8 38.4l6.4-19.2v-6.4h-19.2v6.4h6.4l6.4 19.2z m32 0l6.4-19.2h-6.4l-6.4 12.8-6.4-12.8h-6.4v19.2h6.4V704l6.4 19.2h6.4V704v12.8z" fill="#FFFFFF" p-id="2784"></path></svg>