<?xml version="1.0" standalone="no"?><!DOCTYPE svg PUBLIC "-//W3C//DTD SVG 1.1//EN" "http://www.w3.org/Graphics/SVG/1.1/DTD/svg11.dtd"><svg t="1538135416386" class="icon" style="" viewBox="0 0 1024 1024" version="1.1" xmlns="http://www.w3.org/2000/svg" p-id="5900" xmlns:xlink="http://www.w3.org/1999/xlink" width="64" height="64"><defs><style type="text/css"></style></defs><path d="M499.2 25.6C236.8 25.6 32 230.4 32 492.8c0 256 204.8 467.2 467.2 467.2 256 0 467.2-204.8 467.2-467.2S761.6 25.6 499.2 25.6z m-38.4 723.2C384 678.4 307.2 608 230.4 531.2c25.6-19.2 44.8-32 64-44.8 44.8 38.4 89.6 70.4 128 108.8C512 473.6 633.6 396.8 748.8 307.2c12.8 0 12.8 12.8 19.2 19.2-134.4 115.2-224 268.8-307.2 422.4z" fill="#38B54A" p-id="5901"></path></svg>