<?xml version="1.0" standalone="no"?><!DOCTYPE svg PUBLIC "-//W3C//DTD SVG 1.1//EN" "http://www.w3.org/Graphics/SVG/1.1/DTD/svg11.dtd"><svg t="1539766447084" class="icon" style="" viewBox="0 0 1024 1024" version="1.1" xmlns="http://www.w3.org/2000/svg" p-id="16965" xmlns:xlink="http://www.w3.org/1999/xlink" width="256" height="256"><defs><style type="text/css"></style></defs><path d="M920.31478262 866.52465664h-74.7330961a31.90645635 31.90645635 0 0 0-31.22013251 28.82562276h105.38891718l-11.31672569 18.60701572H814.39205732a31.79969472 31.79969472 0 0 0 31.22013252 29.43568916h83.88408692L918.07278945 961.84748339h-72.97915606c-29.99999971 0-49.76614161-25.47025928-49.76614159-56.8886625s19.82714766-56.8886625 49.76614159-56.88866337l86.26334503-0.1525166z m-407.21911524-536.85815976l-1.23538447-0.1525166h-0.38129062c-2.39450977 0-4.72801201 0-7.09201846-0.15251573-6.90899854 0-13.81799707-0.1525166-20.60498232-0.45754981-6.32943545-0.1525166-12.49110352-0.61006641-18.68327403-1.0676162-2.86731035-0.1525166-5.7651249-0.3050332-8.60193193-0.61006553-6.89374687-0.61006641-13.63497714-1.37264854-20.34570411-2.13523155l-6.10066055-0.6100664c-6.93950185-0.91509873-13.72648711-1.98271494-20.43721406-3.05033027l-5.12455517-0.91509873c-6.74123028-1.06761533-13.36044727-2.44026474-19.82714854-3.81291329l-4.80427031-0.91509873c-6.34468711-1.52516513-12.56736182-2.89781367-18.6527707-4.57549628l-5.33807842-1.37264854c-5.65836328-1.52516513-11.25571904-3.20284688-16.6548041-4.88052862-2.51652305-0.76258301-4.95678691-1.67768174-7.41230332-2.44026474-4.43823047-1.52516513-8.95272012-3.05033027-13.192679-4.72801201a205.28723935 205.28723935 0 0 1-14.1992877-5.64311163c-1.6166751-0.61006641-3.70615166-1.37264854-5.26182012-1.98271406-43.87900342-19.52211533-74.01626807-44.99237461-86.7666498-73.66548076v-10.52364023c0-0.4575498 0.89984707-0.91509873 0.91509873-1.37264853a58.58159678 58.58159678 0 0 1-0.2287749-8.84595851C213.06516347 121.93899365 346.74589619 62 511.60100557 62s298.61209951 59.93899365 298.61209951 133.75699013v2.13523155a49.62887666 49.62887666 0 0 1 1.32689356 8.08337549v12.65887178c-28.68835781 63.14184052-150.67107246 111.03202881-298.39857627 111.03202793z m-0.77783467 36.75648252c147.69700049 0 270.45754981-47.73767168 299.14590762-111.03202882v100.50838858c-25.51601425 64.66700567-150.38129092 113.92984248-300.28978125 113.92984248-147.22419903 0-270.16776826-47.43263847-298.85612607-110.4219624v-105.99898359c25.53126592 64.20945586 150.74733076 113.01474287 300.04575469 113.01474375zM269.00822393 904.95882089c0 31.41840322-19.82714766 56.8886625-49.76614073 56.8886625H142.25174229c-30.01525137 0-49.76614161-25.47025928-49.76614161-56.8886625s19.82714766-56.8886625 49.76614161-56.88866337h76.99034091c30.04575469 0 49.81189658 25.31774268 49.81189571 56.88866337z m-158.83070625 0a34.10269453 34.10269453 0 0 0 32.02846962 38.43416339h76.99034092a39.0747331 39.0747331 0 0 0 0-76.86832764H142.20598731a34.10269453 34.10269453 0 0 0-31.98271465 38.43416425z m292.32841904-23.18251201a33.0350792 33.0350792 0 0 1-32.25724453 33.85866797h-12.79613672l45.75495674 46.21250654h-25.72953663l-63.90442353-64.81952226h56.65988847a15.25165224 15.25165224 0 0 0 0-30.50330449h-70.66090546v95.47534336h-19.93390928v-114.08235908l90.59481474 0.1525166a33.00457588 33.00457588 0 0 1 32.31825118 33.70615136z m91.08286699-28.52058955l65.67361436 108.74428067h-21.52008106l-53.57905401-88.91713301-22.8774788 37.51906465h41.97254677l-11.01169248 18.60701573h-42.01830175l-19.62887695 32.79105263h-21.55058438l65.13980712-108.43924747a11.43873896 11.43873896 0 0 1 19.46110782-0.3050332z m106.33452012-5.18556181l86.24809336-0.1525166-11.02694502 18.60701572h-74.7330961a39.05948144 39.05948144 0 0 0 0 76.86832764h83.88408779L672.88722823 961.84748339h-72.9639044c-30.01525137 0-49.79664492-25.47025928-49.79664492-56.8886625s19.78139268-56.8886625 49.84239902-56.88866337z m-88.74936475-239.45094053c-147.22419903 0-270.16776826-47.58515508-298.85612608-110.4219624v-101.88103711c28.68835781 62.83680732 151.64717871 110.2694458 298.85612608 110.2694458 149.86273535 0 274.78901865-49.11032021 300.28978125-113.77732588v101.88103711c-25.47025928 64.66700567-150.33553594 113.92984248-300.24402627 113.92984248z m300.28978125 17.53940039c0 2.13523154-0.33553653 4.27046221-0.33553652 6.40569375 0 75.95322803-134.39755987 137.41738682-299.35943086 137.41738682S212.72962783 708.51753916 212.72962783 632.56431114c0-2.13523154-0.41179482-4.27046221-0.41179482-6.40569375v-91.20488116c28.68835781 62.98932393 151.64717871 110.4219624 298.85612607 110.42196241 149.86273535 0 274.78901865-49.11032021 300.28978125-113.77732588v94.56024462zM717.84909864 943.39298428h77.00559258l-11.31672657 18.60701572h-83.44178877v-114.08235908H717.84909864v95.47534336z" fill="#00C1DE" p-id="16966"></path></svg>