<?xml version="1.0" standalone="no"?><!DOCTYPE svg PUBLIC "-//W3C//DTD SVG 1.1//EN" "http://www.w3.org/Graphics/SVG/1.1/DTD/svg11.dtd"><svg t="1540723150473" class="icon" style="" viewBox="0 0 1029 1024" version="1.1" xmlns="http://www.w3.org/2000/svg" p-id="1453" xmlns:xlink="http://www.w3.org/1999/xlink" width="257.25" height="256"><defs><style type="text/css"></style></defs><path d="M455.708381 449.902861m-449.902861 0a449.902861 449.902861 0 1 0 899.805721 0 449.902861 449.902861 0 1 0-899.805721 0Z" fill="#E16B5A" p-id="1454"></path><path d="M601.385521 1024c-2.200306 0-4.407642-0.26713-6.614978-0.78733a27.387837 27.387837 0 0 1-20.639294-28.463386l25.813177-361.082194-61.812435-20.597115a27.366747 27.366747 0 0 1-18.565523-23.451187l-24.217428-266.69398a121.26288 121.26288 0 0 1-21.419594 1.968325c-27.366747 0-90.971764-11.683415-90.971764-119.976439 0-33.904398 35.675891-68.019689 85.235503-68.019689 49.524463 0 106.472324 36.877975 174.077258 112.672547 60.765005 68.167313 95.632477 171.307544 95.632477 282.967811 0 221.197553-107.013613 464.960547-111.55482 475.216926a27.31051 27.31051 0 0 1-24.962579 16.245711z" fill="#FFD464" p-id="1455"></path><path d="M642.249354 249.583612C574.651449 173.789039 517.696559 136.918094 468.172096 136.918094c-4.224869 0-8.302114 0.330397-12.302032 0.78733 46.649303 5.469132 99.787049 42.178393 161.958001 111.878188 60.757975 68.167313 95.632477 171.307544 95.632476 282.96781 0 221.197553-107.020643 464.960547-111.56185 475.216926a27.085558 27.085558 0 0 1-12.730845 13.300254c1.757433 0.885746 3.606253 1.651987 5.574578 2.165157 2.207336 0.5202 4.435761 0.78733 6.600919 0.78733 10.614896 0 20.512759-6.179135 24.962579-16.252741 4.548237-10.256379 111.55482-254.019373 111.55482-475.216926 0.028119-111.660266-34.846383-214.800497-95.611388-282.96781z" fill="#F2C95F" p-id="1456"></path><path d="M703.183073 779.716806c19.331764-76.342892 34.705788-163.363947 34.705788-247.165384 0-111.660266-34.874501-214.800497-95.632477-282.96781-23.078611-25.876444-44.87781-47.099206-65.601461-63.998682L555.530578 240.606644c25.082084-1.363768 69.861479 61.320354 41.369974 101.200025-48.82149 5.286359-63.077787 77.861314-41.369974 120.588026 21.686724 42.726712 159.349969 137.656216 147.652495 317.322111z" fill="#2995CC" p-id="1457"></path><path d="M623.219869 229.056794a642.721385 642.721385 0 0 0-13.686888-13.855602l-1.363768-1.384857a489.445104 489.445104 0 0 0-31.422903-28.140018l-0.098417-0.091387-6.080718 15.830957c15.170162 13.799364 30.902703 29.799035 47.281979 48.167725 60.757975 68.167313 95.632477 171.307544 95.632477 282.96781 0 54.037551-6.411116 109.396692-16.119176 162.379784a313.230807 313.230807 0 0 1 5.834677 84.79966c2.284663-9.019146 4.513088-18.207006 6.650127-27.493283 0.27416-1.216144 0.548319-2.446347 0.836538-3.66249 2.073771-9.075384 4.091304-18.235125 6.003391-27.500313 0.028119-0.168714 0.084357-0.330397 0.112476-0.485051 1.905057-9.244098 3.68358-18.607701 5.412894-28.041602 0.323368-1.771493 0.632676-3.578134 0.956044-5.363686a1082.304599 1082.304599 0 0 0 4.681801-28.477445 1057.313901 1057.313901 0 0 0 7.254684-61.95303c0.042178-0.386635 0.091387-0.738122 0.126535-1.138816 0.752181-9.335484 1.32159-18.685028 1.771493-28.020513 0.112476-2.270603 0.196833-4.548237 0.288219-6.839929 0.372576-9.419841 0.632676-18.825623 0.632675-28.175167 0-111.660266-34.874501-214.800497-95.632476-282.96781a751.281539 751.281539 0 0 0-19.071664-20.554937z" fill="#268CBF" p-id="1458"></path><path d="M576.640864 185.58493c-39.985117-32.582809-75.843781-48.687925-108.468768-48.687925-49.552582 0-85.235503 34.11529-85.235503 68.019689 0 1.166936 0.049208 2.235455 0.070297 3.381301 39.90779-21.890586 109.445901-46.115043 193.633974-22.713065z" fill="#2995CC" p-id="1459"></path><path d="M455.940362 137.698394l-0.056238 0.00703c26.874666 3.15635 55.928549 16.737792 87.583433 40.95522 10.76252 1.546541 21.820289 3.767936 33.173307 6.924286-14.811646-12.07708-29.067943-21.848408-42.78998-29.433489l-1.166936-0.632676a198.744589 198.744589 0 0 0-12.196585-6.080718c-0.414754-0.189803-0.822479-0.400695-1.251292-0.583468a147.975863 147.975863 0 0 0-24.779806-8.590332c-1.012281-0.246041-1.989414-0.449903-3.001696-0.667825a112.799083 112.799083 0 0 0-8.850433-1.595749c-1.06149-0.147624-2.144068-0.323368-3.184469-0.435844a99.990911 99.990911 0 0 0-11.247571-0.695943c-2.390109 0-4.709921 0.147624-7.029732 0.302278-1.743374 0.168714-3.479717 0.337427-5.202002 0.52723z" fill="#268CBF" p-id="1460"></path><path d="M475.883712 240.529317c-6.340818 0-12.709756-2.713477-17.342349-7.121119-4.407642-4.667742-7.08597-11.057769-7.08597-17.447795 0-6.382997 2.678328-12.744904 7.08597-17.433736 9.047265-9.089444 25.630404-9.089444 34.670639 0 4.393583 4.688831 7.093 11.050739 7.093 17.433736 0 6.390027-2.699417 12.780053-7.093 17.447795-4.639623 4.407642-10.994501 7.121119-17.32829 7.121119z" fill="#F5F5F5" p-id="1461"></path><path d="M475.883712 232.388887a17.06819 17.06819 0 0 1-11.570939-4.745069 17.257993 17.257993 0 0 1-4.72398-11.634207c0-4.245958 1.785552-8.505976 4.72398-11.620147 6.02448-6.059629 17.082249-6.059629 23.10673 0 2.924369 3.114171 4.72398 7.381219 4.72398 11.620147 0 4.260018-1.799611 8.520035-4.72398 11.634207a16.934625 16.934625 0 0 1-11.535791 4.745069z" fill="#242424" p-id="1462"></path><path d="M576.640864 185.5779c-37.159164 97.685159-82.507967 109.291246-139.821374 91.316222-59.352029-18.600671-47.956833-95.428615-33.749744-115.076717 0.084357-0.063268 0.147624-0.147624 0.224951-0.224951a235.144542 235.144542 0 0 0-50.206347 32.245382c-18.818593 15.669273-29.770916 36.357775-31.697062 59.823021-4.245958 51.668532 27.739323 104.714891 61.538275 115.069686 22.945046-1.328619 31.387754-43.450775 35.879753-58.030439 19.148991 15.852046 40.132741 17.229874 53.615768 17.229873 7.500724 0 16.498781-1.005252 23.141878-2.200306 35.275196-23.978417 59.084899-44.413848 81.073902-140.151771z" fill="#242424" p-id="1463"></path><path d="M28.040563 832.875641a27.275361 27.275361 0 0 1-24.175249-14.544516 27.31051 27.31051 0 0 1 11.423315-36.892034C30.789188 773.270542 399.850129 582.378164 852.269633 669.553873a27.366747 27.366747 0 0 1 21.644546 32.006371 27.366747 27.366747 0 0 1-31.999341 21.644545C408.229569 639.628303 44.38469 827.821264 40.757348 829.726321a27.127737 27.127737 0 0 1-12.716785 3.14932z" fill="#99602E" p-id="1464"></path></svg>