<?xml version="1.0" standalone="no"?><!DOCTYPE svg PUBLIC "-//W3C//DTD SVG 1.1//EN" "http://www.w3.org/Graphics/SVG/1.1/DTD/svg11.dtd"><svg t="1538128912059" class="icon" style="" viewBox="0 0 1024 1024" version="1.1" xmlns="http://www.w3.org/2000/svg" p-id="34685" xmlns:xlink="http://www.w3.org/1999/xlink" width="64" height="64"><defs><style type="text/css"></style></defs><path d="M341.72 105.72c0-22.82 18.89-41.49 42-41.49h126c23.1 0 42 18.67 42 41.49h157.47c58.79 0 105 45.64 105 103.74v27c0 12.44-8.4 20.73-21 20.73s-21-8.29-21-20.73v-27c0-35.27-27.3-62.25-63-62.25h-525c-35.7 0-63 27-63 62.25v539.4c0 35.27 27.3 62.25 63 62.25h33.6c12.6 0 21 8.28 21 20.74s-8.4 20.74-21 20.74h-33.6c-58.79 0-105-45.65-105-103.73v-539.4c0-58.1 46.2-103.74 105-103.74zM940.18 697c0 12.44 5.58 163.81 5.6 176.4 0.08 78.74-51.8 82.92-110.59 82.92h-420c-58.8 0-105-45.65-105-103.74V437.66c0-58.07 46.19-103.73 105-103.73h420c58.79 0 105 45.66 105 103.73V697zM236.71 271.69c-12.6 0-21-8.29-21-20.75s8.39-20.74 21-20.74h63c12.6 0 21 8.29 21 20.74s-8.4 20.75-21 20.75z m168 0c-12.6 0-21-8.29-21-20.75s8.4-20.74 21-20.74h252c12.6 0 21 8.29 21 20.74s-8.4 20.75-21 20.75z" fill="#31B6FF" p-id="34686"></path></svg>