<?xml version="1.0" standalone="no"?><!DOCTYPE svg PUBLIC "-//W3C//DTD SVG 1.1//EN" "http://www.w3.org/Graphics/SVG/1.1/DTD/svg11.dtd"><svg t="1540728044965" class="icon" style="" viewBox="0 0 1024 1024" version="1.1" xmlns="http://www.w3.org/2000/svg" p-id="5905" xmlns:xlink="http://www.w3.org/1999/xlink" width="256" height="256"><defs><style type="text/css"></style></defs><path d="M368.672 910.656l74 81.344 82.64 14 58-26.656L634.688 926z" fill="#424953" p-id="5906"></path><path d="M116 501.344h782.688v104H116z" fill="#EC5564" p-id="5907"></path><path d="M766 384l-62-86-79-60-133-28-129.344 61-99.656 91.672-26 114.328 8 369v71H778l17-385z" fill="#FECD57" p-id="5908"></path><path d="M474 56a36.5 35 0 1 0 73 0 36.5 35 0 1 0-73 0Z" fill="#424953" p-id="5909"></path><path d="M938.656 554.688c0-47.156-38.188-85.344-85.312-85.344h-43.438c-10.438-147.938-128.626-266.126-276.562-276.562V124.344C558.188 115.562 576 91.876 576 64c0-35.344-28.656-64-64-64s-64 28.656-64 64c0 27.876 17.812 51.562 42.656 60.344v68.438c-147.938 10.438-266.126 128.626-276.562 276.562H170.656c-47.126 0-85.312 38.188-85.312 85.344 0 39.75 27.188 73.156 64 82.626V832c0 11.782 9.532 21.344 21.312 21.344S192 843.782 192 832v-192h21.344v256c0 23.562 19.094 42.688 42.656 42.688h108.218C393.718 989.688 448.844 1024 512 1024s118.282-34.312 147.782-85.312H768c23.562 0 42.656-19.126 42.656-42.688V640H832v191.344c0 11.782 9.562 21.344 21.344 21.344s21.312-9.562 21.312-21.344v-194.032c36.812-9.468 64-42.874 64-82.624zM512 42.688c11.75 0 21.344 9.562 21.344 21.312 0 11.782-9.594 21.344-21.344 21.344-11.782 0-21.344-9.562-21.344-21.344 0-11.75 9.562-21.312 21.344-21.312z m-181.032 266.968c48.376-48.344 112.656-74.968 181.032-74.968s132.656 26.626 181.032 74.968c43.282 43.282 69.126 99.344 74.062 159.688H256.876c4.968-60.344 30.812-116.406 74.092-159.688zM170.656 597.344c-23.5 0-42.656-19.156-42.656-42.656C128 531.156 147.156 512 170.656 512h42.688v85.344H170.656z m341.344 384c-37.812 0-71.844-16.5-95.312-42.656h190.626c-23.47 26.156-57.502 42.656-95.314 42.656zM256 896V512h512v384H256z m597.344-298.656h-42.688V512h42.688c23.5 0 42.656 19.156 42.656 42.688 0 23.5-19.156 42.656-42.656 42.656z" fill="" p-id="5910"></path><path d="M618.656 597.344c-11.782 0-21.312 9.562-21.312 21.344S606.876 640 618.656 640 640 630.468 640 618.688s-9.562-21.344-21.344-21.344zM426.656 384c11.782 0 21.344-9.532 21.344-21.312s-9.562-21.344-21.344-21.344-21.312 9.562-21.312 21.344S414.876 384 426.656 384zM704 597.344c-11.782 0-21.344 9.562-21.344 21.344S692.218 640 704 640s21.344-9.532 21.344-21.312-9.562-21.344-21.344-21.344zM405.344 597.344H320c-11.782 0-21.344 9.562-21.344 21.344S308.218 640 320 640h85.344c11.782 0 21.312-9.532 21.312-21.312s-9.53-21.344-21.312-21.344zM597.344 384c11.782 0 21.312-9.532 21.312-21.312s-9.532-21.344-21.312-21.344S576 350.906 576 362.688 585.562 384 597.344 384z" fill="" p-id="5911"></path></svg>