<?xml version="1.0" standalone="no"?><!DOCTYPE svg PUBLIC "-//W3C//DTD SVG 1.1//EN" "http://www.w3.org/Graphics/SVG/1.1/DTD/svg11.dtd"><svg t="1538128531129" class="icon" style="" viewBox="0 0 1024 1024" version="1.1" xmlns="http://www.w3.org/2000/svg" p-id="17228" xmlns:xlink="http://www.w3.org/1999/xlink" width="64" height="64"><defs><style type="text/css"></style></defs><path d="M682.656 341.344V114.656H114.656v226.688h568zM512 909.344c46.208 0 86.208-16.896 120-50.688 33.792-33.76 50.656-73.76 50.656-120 0-46.208-16.864-86.208-50.656-120-33.792-33.76-73.792-50.656-120-50.656s-86.208 16.896-120 50.656c-33.792 33.792-50.656 73.792-50.656 120 0 46.24 16.864 86.24 50.656 120 33.792 33.792 73.792 50.688 120 50.688zM797.344 0L1024 226.656v682.688c0 30.208-11.552 56.864-34.656 80-23.136 23.104-49.792 34.656-80 34.656H114.656c-32 0-59.104-11.552-81.312-34.656C11.104 966.208 0 939.52 0 909.344V114.656c0-30.208 11.104-56.864 33.344-80C55.552 11.552 82.656 0 114.656 0h682.688z" fill="#646CB4" p-id="17229"></path></svg>