<?xml version="1.0" standalone="no"?><!DOCTYPE svg PUBLIC "-//W3C//DTD SVG 1.1//EN" "http://www.w3.org/Graphics/SVG/1.1/DTD/svg11.dtd"><svg t="1538128948310" class="icon" style="" viewBox="0 0 1024 1024" version="1.1" xmlns="http://www.w3.org/2000/svg" p-id="36887" xmlns:xlink="http://www.w3.org/1999/xlink" width="64" height="64"><defs><style type="text/css"></style></defs><path d="M853.312 1024H170.688A170.688 170.688 0 0 1 0 853.312V170.688A170.688 170.688 0 0 1 170.688 0h682.624A170.688 170.688 0 0 1 1024 170.688v682.624A170.688 170.688 0 0 1 853.312 1024z m-39.68-685.696a63.616 63.616 0 0 0-89.6 0L452.416 609.984 373.568 531.136a69.44 69.44 0 1 0-98.24 98.112l117.504 117.504a67.456 67.456 0 0 0 30.592 16.704 63.424 63.424 0 0 0 69.056-13.824l321.408-321.408a63.552 63.552 0 0 0-0.256-89.92z" fill="#008DFF" p-id="36888"></path></svg>