<?xml version="1.0" standalone="no"?><!DOCTYPE svg PUBLIC "-//W3C//DTD SVG 1.1//EN" "http://www.w3.org/Graphics/SVG/1.1/DTD/svg11.dtd"><svg t="1575899802063" class="icon" viewBox="0 0 1024 1024" version="1.1" xmlns="http://www.w3.org/2000/svg" p-id="1771" xmlns:xlink="http://www.w3.org/1999/xlink" width="200" height="200"><defs><style type="text/css"></style></defs><path d="M940.203008 364.61568L779.3152 156.672H633.957376c0 64.825344-51.04128 117.377024-114.002944 117.377024-62.961664 0-114.002944-52.55168-114.002944-117.377024h-169.1648L82.944 367.473664l120.480768 121.447424 57.059328 0.288768v340.697088c0 21.423104 17.963008 38.586368 40.12032 38.586368h425.669632c22.115328 0 40.12032-17.27488 40.12032-38.586368v-338.13504l69.214208 0.349184L940.203008 364.61568z" fill="#FFF200" p-id="1772"></path><path d="M786.874368 829.906944V440.415232c0-11.311104-9.168896-20.48-20.48-20.48s-20.48 9.168896-20.48 20.48v389.491712c0 9.984-8.810496 18.106368-19.64032 18.106368H300.603392c-10.829824 0-19.64032-8.122368-19.64032-18.106368V440.415232c0-11.311104-9.168896-20.48-20.48-20.48s-20.48 9.168896-20.48 20.48v389.491712c0 32.569344 27.185152 59.066368 60.60032 59.066368h425.668608c33.416192 0 60.601344-26.497024 60.601344-59.066368m48.72192-317.304832a20.39296 20.39296 0 0 1-12.977152-4.646912c-8.74496-7.17312-10.017792-20.078592-2.844672-28.823552l94.244864-114.888704L769.266688 177.152H652.954624c-9.680896 66.33472-65.636352 117.377024-133.00224 117.377024-67.364864 0-123.32032-51.042304-133.001216-117.377024H247.194624L109.778944 365.44512l108.1856 109.051904c7.964672 8.030208 7.912448 20.99712-0.116736 28.962816-8.030208 7.96672-20.99712 7.916544-28.96384-0.114688l-120.479744-121.4464c-7.084032-7.1424-7.932928-18.37056-2.002944-26.498048l153.842688-210.80064a20.482048 20.482048 0 0 1 16.543744-8.40704h169.1648c11.31008 0 20.48 9.167872 20.48 20.48 0 53.428224 41.95328 96.896 93.52192 96.896s93.52192-43.467776 93.52192-96.897024c0-11.311104 9.16992-20.48 20.48-20.48H779.3152a20.48 20.48 0 0 1 16.197632 7.948288l160.887808 207.94368a20.48 20.48 0 0 1-0.364544 25.521152L851.442688 505.109504c-4.048896 4.93568-9.924608 7.492608-15.8464 7.492608" fill="#000000" p-id="1773"></path></svg>