<?xml version="1.0" standalone="no"?><!DOCTYPE svg PUBLIC "-//W3C//DTD SVG 1.1//EN" "http://www.w3.org/Graphics/SVG/1.1/DTD/svg11.dtd"><svg t="1538129081248" class="icon" style="" viewBox="0 0 1536 1024" version="1.1" xmlns="http://www.w3.org/2000/svg" p-id="41849" xmlns:xlink="http://www.w3.org/1999/xlink" width="96" height="64"><defs><style type="text/css"></style></defs><path d="M1292.995885 454.061025S1284.489333 88.279294 995.266569 11.720327s-425.327594 246.690004-425.327594 255.196556c0 8.506552-17.013104 8.506552-17.013103 8.506552-25.519656-25.519656-127.598278-76.558967-229.676901-8.506552-110.585174 59.545863-68.052415 187.144141-68.052415 187.144142S93.572071 445.554473 17.013104 700.751029c-76.558967 255.196556 204.157245 323.248971 204.157245 323.248971h476.366905V751.79034H578.445527c-8.506552 0-8.506552-8.506552-8.506552-8.506552s0-8.506552 8.506552-8.506552l195.650693-212.663796c0-8.506552 0-8.506552 8.506552-8.506552s8.506552 0 8.506552 8.506552l195.650693 212.663796v8.506552c0 8.506552-8.506552 8.506552-8.506552 8.506552h-102.078622V1024h433.834145s204.157245-51.039311 221.170349-272.20966c17.013104-221.170349-238.183452-297.729316-238.183452-297.729315z" fill="#679AFA" p-id="41850"></path></svg>