<?xml version="1.0" standalone="no"?><!DOCTYPE svg PUBLIC "-//W3C//DTD SVG 1.1//EN" "http://www.w3.org/Graphics/SVG/1.1/DTD/svg11.dtd"><svg t="1538129058862" class="icon" style="" viewBox="0 0 1024 1024" version="1.1" xmlns="http://www.w3.org/2000/svg" p-id="40630" xmlns:xlink="http://www.w3.org/1999/xlink" width="64" height="64"><defs><style type="text/css"></style></defs><path d="M484.915 43.86c-113.41 6.466-217.557 52.25-300.385 132.631C74.616 282.911 24.115 436.511 48.928 588.887 70.072 718.373 144.513 832.306 256 905.698c23.59 15.553 68.15 38.094 94.187 47.53 113.06 41.415 240.448 37.57 350.537-11.008 139.445-61.335 241.67-187.675 271.377-335.858 7.165-35.648 8.912-54.346 8.912-96.11-0.175-31.104-0.874-44.384-3.844-63.781-15.727-102.4-58.19-188.549-128.787-261.068-96.458-99.08-225.944-149.406-363.467-141.542zM525.98 209.17c5.591 5.766 301.433 518.29 303.18 524.93 1.573 6.64-3.145 16.601-9.96 20.795-5.767 3.495-7.863 3.495-307.375 3.495H210.217l-5.941-4.019c-6.466-4.369-10.485-13.455-9.087-20.445 0.35-2.447 68.325-121.098 150.63-263.864C467.265 259.844 496.796 209.868 501.69 206.547c7.864-5.417 17.65-4.368 24.29 2.622z" fill="#08789E" p-id="40631"></path><path d="M508.33 271.727c-2.271 3.844-60.985 105.196-130.359 225.42l-126.165 218.43 130.184 0.524c71.47 0.175 188.55 0.175 260.194 0l130.185-0.524L644.63 494.526c-70.247-121.622-128.612-222.974-130.01-225.42l-2.272-4.369-4.019 6.99z m31.629 155.872c0 5.94-6.64 173.346-6.99 178.239 0 0.349-9.785 0.524-21.843 0.524h-21.843v-15.378c0-16.6-2.97-120.573-4.194-152.027l-0.873-19.571h55.743v8.213z m-8.912 214.236c8.737 5.766 12.756 13.106 12.756 23.416 0 8.911-2.97 14.154-12.057 20.969-5.766 4.368-7.689 4.893-19.92 4.893-15.203 0-20.096-2.272-27.436-13.28-5.417-7.69-4.718-20.97 1.398-29.533 9.087-12.756 30.93-15.901 45.26-6.465z m-375.7-497.322c-2.271 2.796-2.096 2.971 0.7 0.7 1.572-1.224 2.97-2.622 2.97-2.971 0-1.398-1.398-0.525-3.67 2.271z m-13.105 13.106l-3.32 4.02 4.019-3.32c3.67-3.146 4.718-4.544 3.32-4.544-0.35 0-2.097 1.747-4.02 3.844z" fill="#08789E" p-id="40632"></path></svg>